{"DownloadedIDs":"PIGRIM3MFRKKK","SelectedFiles":{"Pirates.of.the.Caribbean.The.Curse.of.the.Black.Pearl.2003.BluRay.1080p.TrueHD.Atmos.7.1.AVC.HYBRID.REMUX-FraMeSToR.mkv":{"State":"ok_file","id":1,"path":"/Pirates.of.the.Caribbean.The.Curse.of.the.Black.Pearl.2003.BluRay.1080p.TrueHD.Atmos.7.1.AVC.HYBRID.REMUX-FraMeSToR.mkv","bytes":28428464880,"selected":1,"Link":"https://real-debrid.com/d/MGA4XTVKJA3FU10C","Ended":"2022-08-13T08:33:03.000+01:00","Rename":"","MediaInfo":{"streams":[{"index":0,"id":"","codec_name":"h264","codec_long_name":"H.264 / AVC / MPEG-4 AVC / MPEG-4 part 10","codec_type":"video","codec_time_base":"","codec_tag_string":"[0][0][0][0]","codec_tag":"0x0000","r_frame_rate":"24000/1001","avg_frame_rate":"24000/1001","time_base":"1/1000","start_pts":0,"start_time":"0.000000","duration_ts":0,"duration":"","bit_rate":"","bits_per_raw_sample":"8","nb_frames":"","disposition":{"default":1,"dub":0,"original":0,"comment":0,"lyrics":0,"karaoke":0,"forced":0,"hearing_impaired":0,"visual_impaired":0,"clean_effects":0,"attached_pic":0},"tags":{"BPS":"20059365","DURATION":"02:23:09.539000000","NUMBER_OF_BYTES":"21537588284","NUMBER_OF_FRAMES":"205943","_STATISTICS_TAGS":"BPS DURATION NUMBER_OF_FRAMES NUMBER_OF_BYTES","_STATISTICS_WRITING_APP":"mkvmerge v63.0.0 ('Everything') 64-bit","_STATISTICS_WRITING_DATE_UTC":"2022-01-06 21:02:12"},"field_order":"progressive","profile":"High","width":1920,"height":1080,"has_b_frames":1,"sample_aspect_ratio":"1:1","display_aspect_ratio":"16:9","pix_fmt":"yuv420p","level":41},{"index":1,"id":"","codec_name":"truehd","codec_long_name":"TrueHD","codec_type":"audio","codec_time_base":"","codec_tag_string":"[0][0][0][0]","codec_tag":"0x0000","r_frame_rate":"0/0","avg_frame_rate":"0/0","time_base":"1/1000","start_pts":0,"start_time":"0.000000","duration_ts":0,"duration":"","bit_rate":"","bits_per_raw_sample":"24","nb_frames":"","disposition":{"default":1,"dub":0,"original":0,"comment":0,"lyrics":0,"karaoke":0,"forced":0,"hearing_impaired":0,"visual_impaired":0,"clean_effects":0,"attached_pic":0},"tags":{"BPS":"4115227","DURATION":"02:23:09.248000000","NUMBER_OF_BYTES":"4418338268","NUMBER_OF_FRAMES":"10307097","_STATISTICS_TAGS":"BPS DURATION NUMBER_OF_FRAMES NUMBER_OF_BYTES","_STATISTICS_WRITING_APP":"mkvmerge v63.0.0 ('Everything') 64-bit","_STATISTICS_WRITING_DATE_UTC":"2022-01-06 21:02:12","language":"eng","title":"TrueHD Atmos 7.1"},"profile":"Dolby TrueHD + Dolby Atmos","width":0,"height":0,"sample_fmt":"s32","sample_rate":"48000","channels":8,"channel_layout":"7.1"},{"index":2,"id":"","codec_name":"ac3","codec_long_name":"ATSC A/52A (AC-3)","codec_type":"audio","codec_time_base":"","codec_tag_string":"[0][0][0][0]","codec_tag":"0x0000","r_frame_rate":"0/0","avg_frame_rate":"0/0","time_base":"1/1000","start_pts":0,"start_time":"0.000000","duration_ts":0,"duration":"","bit_rate":"640000","bits_per_raw_sample":"","nb_frames":"","disposition":{"default":0,"dub":0,"original":0,"comment":0,"lyrics":0,"karaoke":0,"forced":0,"hearing_impaired":0,"visual_impaired":0,"clean_effects":0,"attached_pic":0},"tags":{"BPS":"640000","DURATION":"02:23:09.248000000","NUMBER_OF_BYTES":"687139840","NUMBER_OF_FRAMES":"268414","_STATISTICS_TAGS":"BPS DURATION NUMBER_OF_FRAMES NUMBER_OF_BYTES","_STATISTICS_WRITING_APP":"mkvmerge v63.0.0 ('Everything') 64-bit","_STATISTICS_WRITING_DATE_UTC":"2022-01-06 21:02:12","language":"eng","title":"AC-3 5.1-EX"},"width":0,"height":0,"sample_fmt":"fltp","sample_rate":"48000","channels":6,"channel_layout":"5.1(side)"},{"index":3,"id":"","codec_name":"ac3","codec_long_name":"ATSC A/52A (AC-3)","codec_type":"audio","codec_time_base":"","codec_tag_string":"[0][0][0][0]","codec_tag":"0x0000","r_frame_rate":"0/0","avg_frame_rate":"0/0","time_base":"1/1000","start_pts":0,"start_time":"0.000000","duration_ts":0,"duration":"","bit_rate":"192000","bits_per_raw_sample":"","nb_frames":"","disposition":{"default":0,"dub":0,"original":0,"comment":1,"lyrics":0,"karaoke":0,"forced":0,"hearing_impaired":0,"visual_impaired":0,"clean_effects":0,"attached_pic":0},"tags":{"BPS":"192000","DURATION":"02:23:14.912000000","NUMBER_OF_BYTES":"206277888","NUMBER_OF_FRAMES":"268591","_STATISTICS_TAGS":"BPS DURATION NUMBER_OF_FRAMES NUMBER_OF_BYTES","_STATISTICS_WRITING_APP":"mkvmerge v63.0.0 ('Everything') 64-bit","_STATISTICS_WRITING_DATE_UTC":"2022-01-06 21:02:12","language":"eng","title":"Commentary by Director Gore Verbinski and Actor Johnny Depp"},"width":0,"height":0,"sample_fmt":"fltp","sample_rate":"48000","channels":2,"channel_layout":"stereo"},{"index":4,"id":"","codec_name":"ac3","codec_long_name":"ATSC A/52A (AC-3)","codec_type":"audio","codec_time_base":"","codec_tag_string":"[0][0][0][0]","codec_tag":"0x0000","r_frame_rate":"0/0","avg_frame_rate":"0/0","time_base":"1/1000","start_pts":0,"start_time":"0.000000","duration_ts":0,"duration":"","bit_rate":"192000","bits_per_raw_sample":"","nb_frames":"","disposition":{"default":0,"dub":0,"original":0,"comment":1,"lyrics":0,"karaoke":0,"forced":0,"hearing_impaired":0,"visual_impaired":0,"clean_effects":0,"attached_pic":0},"tags":{"BPS":"192000","DURATION":"02:23:14.880000000","NUMBER_OF_BYTES":"206277120","NUMBER_OF_FRAMES":"268590","_STATISTICS_TAGS":"BPS DURATION NUMBER_OF_FRAMES NUMBER_OF_BYTES","_STATISTICS_WRITING_APP":"mkvmerge v63.0.0 ('Everything') 64-bit","_STATISTICS_WRITING_DATE_UTC":"2022-01-06 21:02:12","language":"eng","title":"Commentary by Producer Jerry Bruckheimer and Actors Keira Knightley and Jack Davenport"},"width":0,"height":0,"sample_fmt":"fltp","sample_rate":"48000","channels":2,"channel_layout":"stereo"},{"index":5,"id":"","codec_name":"ac3","codec_long_name":"ATSC A/52A (AC-3)","codec_type":"audio","codec_time_base":"","codec_tag_string":"[0][0][0][0]","codec_tag":"0x0000","r_frame_rate":"0/0","avg_frame_rate":"0/0","time_base":"1/1000","start_pts":0,"start_time":"0.000000","duration_ts":0,"duration":"","bit_rate":"192000","bits_per_raw_sample":"","nb_frames":"","disposition":{"default":0,"dub":0,"original":0,"comment":1,"lyrics":0,"karaoke":0,"forced":0,"hearing_impaired":0,"visual_impaired":0,"clean_effects":0,"attached_pic":0},"tags":{"BPS":"192000","DURATION":"02:23:14.912000000","NUMBER_OF_BYTES":"206277888","NUMBER_OF_FRAMES":"268591","_STATISTICS_TAGS":"BPS DURATION NUMBER_OF_FRAMES NUMBER_OF_BYTES","_STATISTICS_WRITING_APP":"mkvmerge v63.0.0 ('Everything') 64-bit","_STATISTICS_WRITING_DATE_UTC":"2022-01-06 21:02:12","language":"eng","title":"Commentary by Writers Stuart Beattie, Ted Elliott, Terry Rossio and Jay Wolpert Commentary"},"width":0,"height":0,"sample_fmt":"fltp","sample_rate":"48000","channels":2,"channel_layout":"stereo"},{"index":6,"id":"","codec_name":"hdmv_pgs_subtitle","codec_long_name":"HDMV Presentation Graphic Stream subtitles","codec_type":"subtitle","codec_time_base":"","codec_tag_string":"[0][0][0][0]","codec_tag":"0x0000","r_frame_rate":"0/0","avg_frame_rate":"0/0","time_base":"1/1000","start_pts":0,"start_time":"0.000000","duration_ts":8594912,"duration":"8594.912000","bit_rate":"","bits_per_raw_sample":"","nb_frames":"","disposition":{"default":0,"dub":0,"original":0,"comment":0,"lyrics":0,"karaoke":0,"forced":0,"hearing_impaired":0,"visual_impaired":0,"clean_effects":0,"attached_pic":0},"tags":{"BPS":"26648","DURATION":"02:12:39.994000000","NUMBER_OF_BYTES":"26515616","NUMBER_OF_FRAMES":"2676","_STATISTICS_TAGS":"BPS DURATION NUMBER_OF_FRAMES NUMBER_OF_BYTES","_STATISTICS_WRITING_APP":"mkvmerge v63.0.0 ('Everything') 64-bit","_STATISTICS_WRITING_DATE_UTC":"2022-01-06 21:02:12","language":"eng","title":"English"},"width":0,"height":0},{"index":7,"id":"","codec_name":"hdmv_pgs_subtitle","codec_long_name":"HDMV Presentation Graphic Stream subtitles","codec_type":"subtitle","codec_time_base":"","codec_tag_string":"[0][0][0][0]","codec_tag":"0x0000","r_frame_rate":"0/0","avg_frame_rate":"0/0","time_base":"1/1000","start_pts":0,"start_time":"0.000000","duration_ts":8594912,"duration":"8594.912000","bit_rate":"","bits_per_raw_sample":"","nb_frames":"","disposition":{"default":0,"dub":0,"original":0,"comment":0,"lyrics":0,"karaoke":0,"forced":0,"hearing_impaired":0,"visual_impaired":0,"clean_effects":0,"attached_pic":0},"tags":{"BPS":"29094","DURATION":"02:22:12.524000000","NUMBER_OF_BYTES":"31031163","NUMBER_OF_FRAMES":"3396","_STATISTICS_TAGS":"BPS DURATION NUMBER_OF_FRAMES NUMBER_OF_BYTES","_STATISTICS_WRITING_APP":"mkvmerge v63.0.0 ('Everything') 64-bit","_STATISTICS_WRITING_DATE_UTC":"2022-01-06 21:02:12","language":"eng","title":"English (SDH)"},"width":0,"height":0},{"index":8,"id":"","codec_name":"hdmv_pgs_subtitle","codec_long_name":"HDMV Presentation Graphic Stream subtitles","codec_type":"subtitle","codec_time_base":"","codec_tag_string":"[0][0][0][0]","codec_tag":"0x0000","r_frame_rate":"0/0","avg_frame_rate":"0/0","time_base":"1/1000","start_pts":0,"start_time":"0.000000","duration_ts":8594912,"duration":"8594.912000","bit_rate":"","bits_per_raw_sample":"","nb_frames":"","disposition":{"default":0,"dub":0,"original":0,"comment":0,"lyrics":0,"karaoke":0,"forced":0,"hearing_impaired":0,"visual_impaired":0,"clean_effects":0,"attached_pic":0},"tags":{"BPS":"13874","DURATION":"02:12:39.952000000","NUMBER_OF_BYTES":"13805247","NUMBER_OF_FRAMES":"2454","_STATISTICS_TAGS":"BPS DURATION NUMBER_OF_FRAMES NUMBER_OF_BYTES","_STATISTICS_WRITING_APP":"mkvmerge v63.0.0 ('Everything') 64-bit","_STATISTICS_WRITING_DATE_UTC":"2022-01-06 21:02:12","language":"ara","title":"Arabic"},"width":0,"height":0},{"index":9,"id":"","codec_name":"hdmv_pgs_subtitle","codec_long_name":"HDMV Presentation Graphic Stream subtitles","codec_type":"subtitle","codec_time_base":"","codec_tag_string":"[0][0][0][0]","codec_tag":"0x0000","r_frame_rate":"0/0","avg_frame_rate":"0/0","time_base":"1/1000","start_pts":0,"start_time":"0.000000","duration_ts":8594912,"duration":"8594.912000","bit_rate":"","bits_per_raw_sample":"","nb_frames":"","disposition":{"default":0,"dub":0,"original":0,"comment":0,"lyrics":0,"karaoke":0,"forced":0,"hearing_impaired":0,"visual_impaired":0,"clean_effects":0,"attached_pic":0},"tags":{"BPS":"23025","DURATION":"02:14:19.927000000","NUMBER_OF_BYTES":"23197930","NUMBER_OF_FRAMES":"2398","_STATISTICS_TAGS":"BPS DURATION NUMBER_OF_FRAMES NUMBER_OF_BYTES","_STATISTICS_WRITING_APP":"mkvmerge v63.0.0 ('Everything') 64-bit","_STATISTICS_WRITING_DATE_UTC":"2022-01-06 21:02:12","language":"bul","title":"Bulgarian"},"width":0,"height":0},{"index":10,"id":"","codec_name":"hdmv_pgs_subtitle","codec_long_name":"HDMV Presentation Graphic Stream subtitles","codec_type":"subtitle","codec_time_base":"","codec_tag_string":"[0][0][0][0]","codec_tag":"0x0000","r_frame_rate":"0/0","avg_frame_rate":"0/0","time_base":"1/1000","start_pts":0,"start_time":"0.000000","duration_ts":8594912,"duration":"8594.912000","bit_rate":"","bits_per_raw_sample":"","nb_frames":"","disposition":{"default":0,"dub":0,"original":0,"comment":0,"lyrics":0,"karaoke":0,"forced":0,"hearing_impaired":0,"visual_impaired":0,"clean_effects":0,"attached_pic":0},"tags":{"BPS":"15655","DURATION":"02:14:19.968000000","NUMBER_OF_BYTES":"15772841","NUMBER_OF_FRAMES":"3051","_STATISTICS_TAGS":"BPS DURATION NUMBER_OF_FRAMES NUMBER_OF_BYTES","_STATISTICS_WRITING_APP":"mkvmerge v63.0.0 ('Everything') 64-bit","_STATISTICS_WRITING_DATE_UTC":"2022-01-06 21:02:12","language":"chi","title":"Chinese (Mandarin Simplified)"},"width":0,"height":0},{"index":11,"id":"","codec_name":"hdmv_pgs_subtitle","codec_long_name":"HDMV Presentation Graphic Stream subtitles","codec_type":"subtitle","codec_time_base":"","codec_tag_string":"[0][0][0][0]","codec_tag":"0x0000","r_frame_rate":"0/0","avg_frame_rate":"0/0","time_base":"1/1000","start_pts":0,"start_time":"0.000000","duration_ts":8594912,"duration":"8594.912000","bit_rate":"","bits_per_raw_sample":"","nb_frames":"","disposition":{"default":0,"dub":0,"original":0,"comment":0,"lyrics":0,"karaoke":0,"forced":0,"hearing_impaired":0,"visual_impaired":0,"clean_effects":0,"attached_pic":0},"tags":{"BPS":"19466","DURATION":"02:15:11.562000000","NUMBER_OF_BYTES":"19737534","NUMBER_OF_FRAMES":"2404","_STATISTICS_TAGS":"BPS DURATION NUMBER_OF_FRAMES NUMBER_OF_BYTES","_STATISTICS_WRITING_APP":"mkvmerge v63.0.0 ('Everything') 64-bit","_STATISTICS_WRITING_DATE_UTC":"2022-01-06 21:02:12","language":"chi","title":"Chinese (Mandarin Traditional)"},"width":0,"height":0},{"index":12,"id":"","codec_name":"hdmv_pgs_subtitle","codec_long_name":"HDMV Presentation Graphic Stream subtitles","codec_type":"subtitle","codec_time_base":"","codec_tag_string":"[0][0][0][0]","codec_tag":"0x0000","r_frame_rate":"0/0","avg_frame_rate":"0/0","time_base":"1/1000","start_pts":0,"start_time":"0.000000","duration_ts":8594912,"duration":"8594.912000","bit_rate":"","bits_per_raw_sample":"","nb_frames":"","disposition":{"default":0,"dub":0,"original":0,"comment":0,"lyrics":0,"karaoke":0,"forced":0,"hearing_impaired":0,"visual_impaired":0,"clean_effects":0,"attached_pic":0},"tags":{"BPS":"22418","DURATION":"02:14:20.886000000","NUMBER_OF_BYTES":"22589517","NUMBER_OF_FRAMES":"2372","_STATISTICS_TAGS":"BPS DURATION NUMBER_OF_FRAMES NUMBER_OF_BYTES","_STATISTICS_WRITING_APP":"mkvmerge v63.0.0 ('Everything') 64-bit","_STATISTICS_WRITING_DATE_UTC":"2022-01-06 21:02:12","language":"cze","title":"Czech"},"width":0,"height":0},{"index":13,"id":"","codec_name":"hdmv_pgs_subtitle","codec_long_name":"HDMV Presentation Graphic Stream subtitles","codec_type":"subtitle","codec_time_base":"","codec_tag_string":"[0][0][0][0]","codec_tag":"0x0000","r_frame_rate":"0/0","avg_frame_rate":"0/0","time_base":"1/1000","start_pts":0,"start_time":"0.000000","duration_ts":8594912,"duration":"8594.912000","bit_rate":"","bits_per_raw_sample":"","nb_frames":"","disposition":{"default":0,"dub":0,"original":0,"comment":0,"lyrics":0,"karaoke":0,"forced":0,"hearing_impaired":0,"visual_impaired":0,"clean_effects":0,"attached_pic":0},"tags":{"BPS":"22796","DURATION":"02:14:19.927000000","NUMBER_OF_BYTES":"22967296","NUMBER_OF_FRAMES":"2452","_STATISTICS_TAGS":"BPS DURATION NUMBER_OF_FRAMES NUMBER_OF_BYTES","_STATISTICS_WRITING_APP":"mkvmerge v63.0.0 ('Everything') 64-bit","_STATISTICS_WRITING_DATE_UTC":"2022-01-06 21:02:12","language":"hrv","title":"Croatian"},"width":0,"height":0},{"index":14,"id":"","codec_name":"hdmv_pgs_subtitle","codec_long_name":"HDMV Presentation Graphic Stream subtitles","codec_type":"subtitle","codec_time_base":"","codec_tag_string":"[0][0][0][0]","codec_tag":"0x0000","r_frame_rate":"0/0","avg_frame_rate":"0/0","time_base":"1/1000","start_pts":0,"start_time":"0.000000","duration_ts":8594912,"duration":"8594.912000","bit_rate":"","bits_per_raw_sample":"","nb_frames":"","disposition":{"default":0,"dub":0,"original":0,"comment":0,"lyrics":0,"karaoke":0,"forced":0,"hearing_impaired":0,"visual_impaired":0,"clean_effects":0,"attached_pic":0},"tags":{"BPS":"19354","DURATION":"02:12:23.853000000","NUMBER_OF_BYTES":"19218723","NUMBER_OF_FRAMES":"2459","_STATISTICS_TAGS":"BPS DURATION NUMBER_OF_FRAMES NUMBER_OF_BYTES","_STATISTICS_WRITING_APP":"mkvmerge v63.0.0 ('Everything') 64-bit","_STATISTICS_WRITING_DATE_UTC":"2022-01-06 21:02:12","language":"dan","title":"Danish"},"width":0,"height":0},{"index":15,"id":"","codec_name":"hdmv_pgs_subtitle","codec_long_name":"HDMV Presentation Graphic Stream subtitles","codec_type":"subtitle","codec_time_base":"","codec_tag_string":"[0][0][0][0]","codec_tag":"0x0000","r_frame_rate":"0/0","avg_frame_rate":"0/0","time_base":"1/1000","start_pts":0,"start_time":"0.000000","duration_ts":8594912,"duration":"8594.912000","bit_rate":"","bits_per_raw_sample":"","nb_frames":"","disposition":{"default":0,"dub":0,"original":0,"comment":0,"lyrics":0,"karaoke":0,"forced":0,"hearing_impaired":0,"visual_impaired":0,"clean_effects":0,"attached_pic":0},"tags":{"BPS":"16044","DURATION":"02:12:23.895000000","NUMBER_OF_BYTES":"15931899","NUMBER_OF_FRAMES":"2117","_STATISTICS_TAGS":"BPS DURATION NUMBER_OF_FRAMES NUMBER_OF_BYTES","_STATISTICS_WRITING_APP":"mkvmerge v63.0.0 ('Everything') 64-bit","_STATISTICS_WRITING_DATE_UTC":"2022-01-06 21:02:12","language":"dut","title":"Dutch"},"width":0,"height":0},{"index":16,"id":"","codec_name":"hdmv_pgs_subtitle","codec_long_name":"HDMV Presentation Graphic Stream subtitles","codec_type":"subtitle","codec_time_base":"","codec_tag_string":"[0][0][0][0]","codec_tag":"0x0000","r_frame_rate":"0/0","avg_frame_rate":"0/0","time_base":"1/1000","start_pts":0,"start_time":"0.000000","duration_ts":8594912,"duration":"8594.912000","bit_rate":"","bits_per_raw_sample":"","nb_frames":"","disposition":{"default":0,"dub":0,"original":0,"comment":0,"lyrics":0,"karaoke":0,"forced":0,"hearing_impaired":0,"visual_impaired":0,"clean_effects":0,"attached_pic":0},"tags":{"BPS":"20298","DURATION":"02:14:18.509000000","NUMBER_OF_BYTES":"20447196","NUMBER_OF_FRAMES":"2480","_STATISTICS_TAGS":"BPS DURATION NUMBER_OF_FRAMES NUMBER_OF_BYTES","_STATISTICS_WRITING_APP":"mkvmerge v63.0.0 ('Everything') 64-bit","_STATISTICS_WRITING_DATE_UTC":"2022-01-06 21:02:12","language":"fin","title":"Finnish"},"width":0,"height":0},{"index":17,"id":"","codec_name":"hdmv_pgs_subtitle","codec_long_name":"HDMV Presentation Graphic Stream subtitles","codec_type":"subtitle","codec_time_base":"","codec_tag_string":"[0][0][0][0]","codec_tag":"0x0000","r_frame_rate":"0/0","avg_frame_rate":"0/0","time_base":"1/1000","start_pts":0,"start_time":"0.000000","duration_ts":8594912,"duration":"8594.912000","bit_rate":"","bits_per_raw_sample":"","nb_frames":"","disposition":{"default":0,"dub":0,"original":0,"comment":0,"lyrics":0,"karaoke":0,"forced":0,"hearing_impaired":0,"visual_impaired":0,"clean_effects":0,"attached_pic":0},"tags":{"BPS":"17985","DURATION":"02:13:01.223000000","NUMBER_OF_BYTES":"17942977","NUMBER_OF_FRAMES":"2807","_STATISTICS_TAGS":"BPS DURATION NUMBER_OF_FRAMES NUMBER_OF_BYTES","_STATISTICS_WRITING_APP":"mkvmerge v63.0.0 ('Everything') 64-bit","_STATISTICS_WRITING_DATE_UTC":"2022-01-06 21:02:12","language":"fre","title":"French (Parisian)"},"width":0,"height":0},{"index":18,"id":"","codec_name":"hdmv_pgs_subtitle","codec_long_name":"HDMV Presentation Graphic Stream subtitles","codec_type":"subtitle","codec_time_base":"","codec_tag_string":"[0][0][0][0]","codec_tag":"0x0000","r_frame_rate":"0/0","avg_frame_rate":"0/0","time_base":"1/1000","start_pts":0,"start_time":"0.000000","duration_ts":8594912,"duration":"8594.912000","bit_rate":"","bits_per_raw_sample":"","nb_frames":"","disposition":{"default":0,"dub":0,"original":0,"comment":0,"lyrics":0,"karaoke":0,"forced":0,"hearing_impaired":0,"visual_impaired":0,"clean_effects":0,"attached_pic":0},"tags":{"BPS":"21802","DURATION":"02:13:01.223000000","NUMBER_OF_BYTES":"21751411","NUMBER_OF_FRAMES":"2855","_STATISTICS_TAGS":"BPS DURATION NUMBER_OF_FRAMES NUMBER_OF_BYTES","_STATISTICS_WRITING_APP":"mkvmerge v63.0.0 ('Everything') 64-bit","_STATISTICS_WRITING_DATE_UTC":"2022-01-06 21:02:12","language":"fre","title":"French (Canadian)"},"width":0,"height":0},{"index":19,"id":"","codec_name":"hdmv_pgs_subtitle","codec_long_name":"HDMV Presentation Graphic Stream subtitles","codec_type":"subtitle","codec_time_base":"","codec_tag_string":"[0][0][0][0]","codec_tag":"0x0000","r_frame_rate":"0/0","avg_frame_rate":"0/0","time_base":"1/1000","start_pts":0,"start_time":"0.000000","duration_ts":8594912,"duration":"8594.912000","bit_rate":"","bits_per_raw_sample":"","nb_frames":"","disposition":{"default":0,"dub":0,"original":0,"comment":0,"lyrics":0,"karaoke":0,"forced":0,"hearing_impaired":0,"visual_impaired":0,"clean_effects":0,"attached_pic":0},"tags":{"BPS":"18823","DURATION":"02:14:19.968000000","NUMBER_OF_BYTES":"18964894","NUMBER_OF_FRAMES":"2515","_STATISTICS_TAGS":"BPS DURATION NUMBER_OF_FRAMES NUMBER_OF_BYTES","_STATISTICS_WRITING_APP":"mkvmerge v63.0.0 ('Everything') 64-bit","_STATISTICS_WRITING_DATE_UTC":"2022-01-06 21:02:12","language":"ger","title":"German"},"width":0,"height":0},{"index":20,"id":"","codec_name":"hdmv_pgs_subtitle","codec_long_name":"HDMV Presentation Graphic Stream subtitles","codec_type":"subtitle","codec_time_base":"","codec_tag_string":"[0][0][0][0]","codec_tag":"0x0000","r_frame_rate":"0/0","avg_frame_rate":"0/0","time_base":"1/1000","start_pts":0,"start_time":"0.000000","duration_ts":8594912,"duration":"8594.912000","bit_rate":"","bits_per_raw_sample":"","nb_frames":"","disposition":{"default":0,"dub":0,"original":0,"comment":0,"lyrics":0,"karaoke":0,"forced":0,"hearing_impaired":0,"visual_impaired":0,"clean_effects":0,"attached_pic":0},"tags":{"BPS":"24869","DURATION":"02:14:19.927000000","NUMBER_OF_BYTES":"25055338","NUMBER_OF_FRAMES":"2528","_STATISTICS_TAGS":"BPS DURATION NUMBER_OF_FRAMES NUMBER_OF_BYTES","_STATISTICS_WRITING_APP":"mkvmerge v63.0.0 ('Everything') 64-bit","_STATISTICS_WRITING_DATE_UTC":"2022-01-06 21:02:12","language":"gre","title":"Greek"},"width":0,"height":0},{"index":21,"id":"","codec_name":"hdmv_pgs_subtitle","codec_long_name":"HDMV Presentation Graphic Stream subtitles","codec_type":"subtitle","codec_time_base":"","codec_tag_string":"[0][0][0][0]","codec_tag":"0x0000","r_frame_rate":"0/0","avg_frame_rate":"0/0","time_base":"1/1000","start_pts":0,"start_time":"0.000000","duration_ts":8594912,"duration":"8594.912000","bit_rate":"","bits_per_raw_sample":"","nb_frames":"","disposition":{"default":0,"dub":0,"original":0,"comment":0,"lyrics":0,"karaoke":0,"forced":0,"hearing_impaired":0,"visual_impaired":0,"clean_effects":0,"attached_pic":0},"tags":{"BPS":"17662","DURATION":"02:14:19.927000000","NUMBER_OF_BYTES":"17794364","NUMBER_OF_FRAMES":"2452","_STATISTICS_TAGS":"BPS DURATION NUMBER_OF_FRAMES NUMBER_OF_BYTES","_STATISTICS_WRITING_APP":"mkvmerge v63.0.0 ('Everything') 64-bit","_STATISTICS_WRITING_DATE_UTC":"2022-01-06 21:02:12","language":"heb","title":"Hebrew"},"width":0,"height":0},{"index":22,"id":"","codec_name":"hdmv_pgs_subtitle","codec_long_name":"HDMV Presentation Graphic Stream subtitles","codec_type":"subtitle","codec_time_base":"","codec_tag_string":"[0][0][0][0]","codec_tag":"0x0000","r_frame_rate":"0/0","avg_frame_rate":"0/0","time_base":"1/1000","start_pts":0,"start_time":"0.000000","duration_ts":8594912,"duration":"8594.912000","bit_rate":"","bits_per_raw_sample":"","nb_frames":"","disposition":{"default":0,"dub":0,"original":0,"comment":0,"lyrics":0,"karaoke":0,"forced":0,"hearing_impaired":0,"visual_impaired":0,"clean_effects":0,"attached_pic":0},"tags":{"BPS":"21528","DURATION":"02:14:19.927000000","NUMBER_OF_BYTES":"21690074","NUMBER_OF_FRAMES":"2422","_STATISTICS_TAGS":"BPS DURATION NUMBER_OF_FRAMES NUMBER_OF_BYTES","_STATISTICS_WRITING_APP":"mkvmerge v63.0.0 ('Everything') 64-bit","_STATISTICS_WRITING_DATE_UTC":"2022-01-06 21:02:12","language":"hun","title":"Hungarian"},"width":0,"height":0},{"index":23,"id":"","codec_name":"hdmv_pgs_subtitle","codec_long_name":"HDMV Presentation Graphic Stream subtitles","codec_type":"subtitle","codec_time_base":"","codec_tag_string":"[0][0][0][0]","codec_tag":"0x0000","r_frame_rate":"0/0","avg_frame_rate":"0/0","time_base":"1/1000","start_pts":0,"start_time":"0.000000","duration_ts":8594912,"duration":"8594.912000","bit_rate":"","bits_per_raw_sample":"","nb_frames":"","disposition":{"default":0,"dub":0,"original":0,"comment":0,"lyrics":0,"karaoke":0,"forced":0,"hearing_impaired":0,"visual_impaired":0,"clean_effects":0,"attached_pic":0},"tags":{"BPS":"20251","DURATION":"02:14:19.968000000","NUMBER_OF_BYTES":"20403004","NUMBER_OF_FRAMES":"2945","_STATISTICS_TAGS":"BPS DURATION NUMBER_OF_FRAMES NUMBER_OF_BYTES","_STATISTICS_WRITING_APP":"mkvmerge v63.0.0 ('Everything') 64-bit","_STATISTICS_WRITING_DATE_UTC":"2022-01-06 21:02:12","language":"ice","title":"Icelandic"},"width":0,"height":0},{"index":24,"id":"","codec_name":"hdmv_pgs_subtitle","codec_long_name":"HDMV Presentation Graphic Stream subtitles","codec_type":"subtitle","codec_time_base":"","codec_tag_string":"[0][0][0][0]","codec_tag":"0x0000","r_frame_rate":"0/0","avg_frame_rate":"0/0","time_base":"1/1000","start_pts":0,"start_time":"0.000000","duration_ts":8594912,"duration":"8594.912000","bit_rate":"","bits_per_raw_sample":"","nb_frames":"","disposition":{"default":0,"dub":0,"original":0,"comment":0,"lyrics":0,"karaoke":0,"forced":0,"hearing_impaired":0,"visual_impaired":0,"clean_effects":0,"attached_pic":0},"tags":{"BPS":"22102","DURATION":"02:12:26.939000000","NUMBER_OF_BYTES":"21956301","NUMBER_OF_FRAMES":"3239","_STATISTICS_TAGS":"BPS DURATION NUMBER_OF_FRAMES NUMBER_OF_BYTES","_STATISTICS_WRITING_APP":"mkvmerge v63.0.0 ('Everything') 64-bit","_STATISTICS_WRITING_DATE_UTC":"2022-01-06 21:02:12","language":"ind","title":"Indonesian"},"width":0,"height":0},{"index":25,"id":"","codec_name":"hdmv_pgs_subtitle","codec_long_name":"HDMV Presentation Graphic Stream subtitles","codec_type":"subtitle","codec_time_base":"","codec_tag_string":"[0][0][0][0]","codec_tag":"0x0000","r_frame_rate":"0/0","avg_frame_rate":"0/0","time_base":"1/1000","start_pts":0,"start_time":"0.000000","duration_ts":8594912,"duration":"8594.912000","bit_rate":"","bits_per_raw_sample":"","nb_frames":"","disposition":{"default":0,"dub":0,"original":0,"comment":0,"lyrics":0,"karaoke":0,"forced":0,"hearing_impaired":0,"visual_impaired":0,"clean_effects":0,"attached_pic":0},"tags":{"BPS":"20158","DURATION":"02:13:01.223000000","NUMBER_OF_BYTES":"20111355","NUMBER_OF_FRAMES":"3163","_STATISTICS_TAGS":"BPS DURATION NUMBER_OF_FRAMES NUMBER_OF_BYTES","_STATISTICS_WRITING_APP":"mkvmerge v63.0.0 ('Everything') 64-bit","_STATISTICS_WRITING_DATE_UTC":"2022-01-06 21:02:12","language":"ita","title":"Italian"},"width":0,"height":0},{"index":26,"id":"","codec_name":"hdmv_pgs_subtitle","codec_long_name":"HDMV Presentation Graphic Stream subtitles","codec_type":"subtitle","codec_time_base":"","codec_tag_string":"[0][0][0][0]","codec_tag":"0x0000","r_frame_rate":"0/0","avg_frame_rate":"0/0","time_base":"1/1000","start_pts":0,"start_time":"0.000000","duration_ts":8594912,"duration":"8594.912000","bit_rate":"","bits_per_raw_sample":"","nb_frames":"","disposition":{"default":0,"dub":0,"original":0,"comment":0,"lyrics":0,"karaoke":0,"forced":0,"hearing_impaired":0,"visual_impaired":0,"clean_effects":0,"attached_pic":0},"tags":{"BPS":"18063","DURATION":"02:12:35.614000000","NUMBER_OF_BYTES":"17963553","NUMBER_OF_FRAMES":"2740","_STATISTICS_TAGS":"BPS DURATION NUMBER_OF_FRAMES NUMBER_OF_BYTES","_STATISTICS_WRITING_APP":"mkvmerge v63.0.0 ('Everything') 64-bit","_STATISTICS_WRITING_DATE_UTC":"2022-01-06 21:02:12","language":"jpn","title":"Japanese"},"width":0,"height":0},{"index":27,"id":"","codec_name":"hdmv_pgs_subtitle","codec_long_name":"HDMV Presentation Graphic Stream subtitles","codec_type":"subtitle","codec_time_base":"","codec_tag_string":"[0][0][0][0]","codec_tag":"0x0000","r_frame_rate":"0/0","avg_frame_rate":"0/0","time_base":"1/1000","start_pts":0,"start_time":"0.000000","duration_ts":8594912,"duration":"8594.912000","bit_rate":"","bits_per_raw_sample":"","nb_frames":"","disposition":{"default":0,"dub":0,"original":0,"comment":0,"lyrics":0,"karaoke":0,"forced":0,"hearing_impaired":0,"visual_impaired":0,"clean_effects":0,"attached_pic":0},"tags":{"BPS":"15476","DURATION":"02:13:01.223000000","NUMBER_OF_BYTES":"15439996","NUMBER_OF_FRAMES":"2991","_STATISTICS_TAGS":"BPS DURATION NUMBER_OF_FRAMES NUMBER_OF_BYTES","_STATISTICS_WRITING_APP":"mkvmerge v63.0.0 ('Everything') 64-bit","_STATISTICS_WRITING_DATE_UTC":"2022-01-06 21:02:12","language":"kor","title":"Korean"},"width":0,"height":0},{"index":28,"id":"","codec_name":"hdmv_pgs_subtitle","codec_long_name":"HDMV Presentation Graphic Stream subtitles","codec_type":"subtitle","codec_time_base":"","codec_tag_string":"[0][0][0][0]","codec_tag":"0x0000","r_frame_rate":"0/0","avg_frame_rate":"0/0","time_base":"1/1000","start_pts":0,"start_time":"0.000000","duration_ts":8594912,"duration":"8594.912000","bit_rate":"","bits_per_raw_sample":"","nb_frames":"","disposition":{"default":0,"dub":0,"original":0,"comment":0,"lyrics":0,"karaoke":0,"forced":0,"hearing_impaired":0,"visual_impaired":0,"clean_effects":0,"attached_pic":0},"tags":{"BPS":"17265","DURATION":"02:12:23.853000000","NUMBER_OF_BYTES":"17144766","NUMBER_OF_FRAMES":"2743","_STATISTICS_TAGS":"BPS DURATION NUMBER_OF_FRAMES NUMBER_OF_BYTES","_STATISTICS_WRITING_APP":"mkvmerge v63.0.0 ('Everything') 64-bit","_STATISTICS_WRITING_DATE_UTC":"2022-01-06 21:02:12","language":"nor","title":"Norwegian"},"width":0,"height":0},{"index":29,"id":"","codec_name":"hdmv_pgs_subtitle","codec_long_name":"HDMV Presentation Graphic Stream subtitles","codec_type":"subtitle","codec_time_base":"","codec_tag_string":"[0][0][0][0]","codec_tag":"0x0000","r_frame_rate":"0/0","avg_frame_rate":"0/0","time_base":"1/1000","start_pts":0,"start_time":"0.000000","duration_ts":8594912,"duration":"8594.912000","bit_rate":"","bits_per_raw_sample":"","nb_frames":"","disposition":{"default":0,"dub":0,"original":0,"comment":0,"lyrics":0,"karaoke":0,"forced":0,"hearing_impaired":0,"visual_impaired":0,"clean_effects":0,"attached_pic":0},"tags":{"BPS":"21723","DURATION":"02:14:19.968000000","NUMBER_OF_BYTES":"21886521","NUMBER_OF_FRAMES":"3251","_STATISTICS_TAGS":"BPS DURATION NUMBER_OF_FRAMES NUMBER_OF_BYTES","_STATISTICS_WRITING_APP":"mkvmerge v63.0.0 ('Everything') 64-bit","_STATISTICS_WRITING_DATE_UTC":"2022-01-06 21:02:12","language":"may","title":"Malay"},"width":0,"height":0},{"index":30,"id":"","codec_name":"hdmv_pgs_subtitle","codec_long_name":"HDMV Presentation Graphic Stream subtitles","codec_type":"subtitle","codec_time_base":"","codec_tag_string":"[0][0][0][0]","codec_tag":"0x0000","r_frame_rate":"0/0","avg_frame_rate":"0/0","time_base":"1/1000","start_pts":0,"start_time":"0.000000","duration_ts":8594912,"duration":"8594.912000","bit_rate":"","bits_per_raw_sample":"","nb_frames":"","disposition":{"default":0,"dub":0,"original":0,"comment":0,"lyrics":0,"karaoke":0,"forced":0,"hearing_impaired":0,"visual_impaired":0,"clean_effects":0,"attached_pic":0},"tags":{"BPS":"22778","DURATION":"02:14:19.927000000","NUMBER_OF_BYTES":"22949620","NUMBER_OF_FRAMES":"2370","_STATISTICS_TAGS":"BPS DURATION NUMBER_OF_FRAMES NUMBER_OF_BYTES","_STATISTICS_WRITING_APP":"mkvmerge v63.0.0 ('Everything') 64-bit","_STATISTICS_WRITING_DATE_UTC":"2022-01-06 21:02:12","language":"pol","title":"Polish"},"width":0,"height":0},{"index":31,"id":"","codec_name":"hdmv_pgs_subtitle","codec_long_name":"HDMV Presentation Graphic Stream subtitles","codec_type":"subtitle","codec_time_base":"","codec_tag_string":"[0][0][0][0]","codec_tag":"0x0000","r_frame_rate":"0/0","avg_frame_rate":"0/0","time_base":"1/1000","start_pts":0,"start_time":"0.000000","duration_ts":8594912,"duration":"8594.912000","bit_rate":"","bits_per_raw_sample":"","nb_frames":"","disposition":{"default":0,"dub":0,"original":0,"comment":0,"lyrics":0,"karaoke":0,"forced":0,"hearing_impaired":0,"visual_impaired":0,"clean_effects":0,"attached_pic":0},"tags":{"BPS":"19991","DURATION":"02:13:01.223000000","NUMBER_OF_BYTES":"19944606","NUMBER_OF_FRAMES":"2667","_STATISTICS_TAGS":"BPS DURATION NUMBER_OF_FRAMES NUMBER_OF_BYTES","_STATISTICS_WRITING_APP":"mkvmerge v63.0.0 ('Everything') 64-bit","_STATISTICS_WRITING_DATE_UTC":"2022-01-06 21:02:12","language":"por","title":"Portuguese (Brazilian)"},"width":0,"height":0},{"index":32,"id":"","codec_name":"hdmv_pgs_subtitle","codec_long_name":"HDMV Presentation Graphic Stream subtitles","codec_type":"subtitle","codec_time_base":"","codec_tag_string":"[0][0][0][0]","codec_tag":"0x0000","r_frame_rate":"0/0","avg_frame_rate":"0/0","time_base":"1/1000","start_pts":0,"start_time":"0.000000","duration_ts":8594912,"duration":"8594.912000","bit_rate":"","bits_per_raw_sample":"","nb_frames":"","disposition":{"default":0,"dub":0,"original":0,"comment":0,"lyrics":0,"karaoke":0,"forced":0,"hearing_impaired":0,"visual_impaired":0,"clean_effects":0,"attached_pic":0},"tags":{"BPS":"25451","DURATION":"02:14:19.927000000","NUMBER_OF_BYTES":"25642076","NUMBER_OF_FRAMES":"2358","_STATISTICS_TAGS":"BPS DURATION NUMBER_OF_FRAMES NUMBER_OF_BYTES","_STATISTICS_WRITING_APP":"mkvmerge v63.0.0 ('Everything') 64-bit","_STATISTICS_WRITING_DATE_UTC":"2022-01-06 21:02:12","language":"por","title":"Portuguese (Iberian)"},"width":0,"height":0},{"index":33,"id":"","codec_name":"hdmv_pgs_subtitle","codec_long_name":"HDMV Presentation Graphic Stream subtitles","codec_type":"subtitle","codec_time_base":"","codec_tag_string":"[0][0][0][0]","codec_tag":"0x0000","r_frame_rate":"0/0","avg_frame_rate":"0/0","time_base":"1/1000","start_pts":0,"start_time":"0.000000","duration_ts":8594912,"duration":"8594.912000","bit_rate":"","bits_per_raw_sample":"","nb_frames":"","disposition":{"default":0,"dub":0,"original":0,"comment":0,"lyrics":0,"karaoke":0,"forced":0,"hearing_impaired":0,"visual_impaired":0,"clean_effects":0,"attached_pic":0},"tags":{"BPS":"25571","DURATION":"02:14:19.927000000","NUMBER_OF_BYTES":"25762838","NUMBER_OF_FRAMES":"2664","_STATISTICS_TAGS":"BPS DURATION NUMBER_OF_FRAMES NUMBER_OF_BYTES","_STATISTICS_WRITING_APP":"mkvmerge v63.0.0 ('Everything') 64-bit","_STATISTICS_WRITING_DATE_UTC":"2022-01-06 21:02:12","language":"rum","title":"Romanian"},"width":0,"height":0},{"index":34,"id":"","codec_name":"hdmv_pgs_subtitle","codec_long_name":"HDMV Presentation Graphic Stream subtitles","codec_type":"subtitle","codec_time_base":"","codec_tag_string":"[0][0][0][0]","codec_tag":"0x0000","r_frame_rate":"0/0","avg_frame_rate":"0/0","time_base":"1/1000","start_pts":0,"start_time":"0.000000","duration_ts":8594912,"duration":"8594.912000","bit_rate":"","bits_per_raw_sample":"","nb_frames":"","disposition":{"default":0,"dub":0,"original":0,"comment":0,"lyrics":0,"karaoke":0,"forced":0,"hearing_impaired":0,"visual_impaired":0,"clean_effects":0,"attached_pic":0},"tags":{"BPS":"26940","DURATION":"02:14:19.968000000","NUMBER_OF_BYTES":"27142032","NUMBER_OF_FRAMES":"2792","_STATISTICS_TAGS":"BPS DURATION NUMBER_OF_FRAMES NUMBER_OF_BYTES","_STATISTICS_WRITING_APP":"mkvmerge v63.0.0 ('Everything') 64-bit","_STATISTICS_WRITING_DATE_UTC":"2022-01-06 21:02:12","language":"rus","title":"Russian"},"width":0,"height":0},{"index":35,"id":"","codec_name":"hdmv_pgs_subtitle","codec_long_name":"HDMV Presentation Graphic Stream subtitles","codec_type":"subtitle","codec_time_base":"","codec_tag_string":"[0][0][0][0]","codec_tag":"0x0000","r_frame_rate":"0/0","avg_frame_rate":"0/0","time_base":"1/1000","start_pts":0,"start_time":"0.000000","duration_ts":8594912,"duration":"8594.912000","bit_rate":"","bits_per_raw_sample":"","nb_frames":"","disposition":{"default":0,"dub":0,"original":0,"comment":0,"lyrics":0,"karaoke":0,"forced":0,"hearing_impaired":0,"visual_impaired":0,"clean_effects":0,"attached_pic":0},"tags":{"BPS":"24824","DURATION":"02:14:19.927000000","NUMBER_OF_BYTES":"25010746","NUMBER_OF_FRAMES":"2664","_STATISTICS_TAGS":"BPS DURATION NUMBER_OF_FRAMES NUMBER_OF_BYTES","_STATISTICS_WRITING_APP":"mkvmerge v63.0.0 ('Everything') 64-bit","_STATISTICS_WRITING_DATE_UTC":"2022-01-06 21:02:12","language":"srp","title":"Serbian"},"width":0,"height":0},{"index":36,"id":"","codec_name":"hdmv_pgs_subtitle","codec_long_name":"HDMV Presentation Graphic Stream subtitles","codec_type":"subtitle","codec_time_base":"","codec_tag_string":"[0][0][0][0]","codec_tag":"0x0000","r_frame_rate":"0/0","avg_frame_rate":"0/0","time_base":"1/1000","start_pts":0,"start_time":"0.000000","duration_ts":8594912,"duration":"8594.912000","bit_rate":"","bits_per_raw_sample":"","nb_frames":"","disposition":{"default":0,"dub":0,"original":0,"comment":0,"lyrics":0,"karaoke":0,"forced":0,"hearing_impaired":0,"visual_impaired":0,"clean_effects":0,"attached_pic":0},"tags":{"BPS":"21558","DURATION":"02:14:20.886000000","NUMBER_OF_BYTES":"21723030","NUMBER_OF_FRAMES":"2334","_STATISTICS_TAGS":"BPS DURATION NUMBER_OF_FRAMES NUMBER_OF_BYTES","_STATISTICS_WRITING_APP":"mkvmerge v63.0.0 ('Everything') 64-bit","_STATISTICS_WRITING_DATE_UTC":"2022-01-06 21:02:12","language":"slo","title":"Slovak"},"width":0,"height":0},{"index":37,"id":"","codec_name":"hdmv_pgs_subtitle","codec_long_name":"HDMV Presentation Graphic Stream subtitles","codec_type":"subtitle","codec_time_base":"","codec_tag_string":"[0][0][0][0]","codec_tag":"0x0000","r_frame_rate":"0/0","avg_frame_rate":"0/0","time_base":"1/1000","start_pts":0,"start_time":"0.000000","duration_ts":8594912,"duration":"8594.912000","bit_rate":"","bits_per_raw_sample":"","nb_frames":"","disposition":{"default":0,"dub":0,"original":0,"comment":0,"lyrics":0,"karaoke":0,"forced":0,"hearing_impaired":0,"visual_impaired":0,"clean_effects":0,"attached_pic":0},"tags":{"BPS":"20527","DURATION":"02:13:01.808000000","NUMBER_OF_BYTES":"20481001","NUMBER_OF_FRAMES":"2450","_STATISTICS_TAGS":"BPS DURATION NUMBER_OF_FRAMES NUMBER_OF_BYTES","_STATISTICS_WRITING_APP":"mkvmerge v63.0.0 ('Everything') 64-bit","_STATISTICS_WRITING_DATE_UTC":"2022-01-06 21:02:12","language":"slv","title":"Slovenian"},"width":0,"height":0},{"index":38,"id":"","codec_name":"hdmv_pgs_subtitle","codec_long_name":"HDMV Presentation Graphic Stream subtitles","codec_type":"subtitle","codec_time_base":"","codec_tag_string":"[0][0][0][0]","codec_tag":"0x0000","r_frame_rate":"0/0","avg_frame_rate":"0/0","time_base":"1/1000","start_pts":0,"start_time":"0.000000","duration_ts":8594912,"duration":"8594.912000","bit_rate":"","bits_per_raw_sample":"","nb_frames":"","disposition":{"default":0,"dub":0,"original":0,"comment":0,"lyrics":0,"karaoke":0,"forced":0,"hearing_impaired":0,"visual_impaired":0,"clean_effects":0,"attached_pic":0},"tags":{"BPS":"19591","DURATION":"02:14:19.968000000","NUMBER_OF_BYTES":"19738358","NUMBER_OF_FRAMES":"3249","_STATISTICS_TAGS":"BPS DURATION NUMBER_OF_FRAMES NUMBER_OF_BYTES","_STATISTICS_WRITING_APP":"mkvmerge v63.0.0 ('Everything') 64-bit","_STATISTICS_WRITING_DATE_UTC":"2022-01-06 21:02:12","language":"spa","title":"Spanish (Castilian)"},"width":0,"height":0},{"index":39,"id":"","codec_name":"hdmv_pgs_subtitle","codec_long_name":"HDMV Presentation Graphic Stream subtitles","codec_type":"subtitle","codec_time_base":"","codec_tag_string":"[0][0][0][0]","codec_tag":"0x0000","r_frame_rate":"0/0","avg_frame_rate":"0/0","time_base":"1/1000","start_pts":0,"start_time":"0.000000","duration_ts":8594912,"duration":"8594.912000","bit_rate":"","bits_per_raw_sample":"","nb_frames":"","disposition":{"default":0,"dub":0,"original":0,"comment":0,"lyrics":0,"karaoke":0,"forced":0,"hearing_impaired":0,"visual_impaired":0,"clean_effects":0,"attached_pic":0},"tags":{"BPS":"20702","DURATION":"02:14:19.968000000","NUMBER_OF_BYTES":"20857661","NUMBER_OF_FRAMES":"3251","_STATISTICS_TAGS":"BPS DURATION NUMBER_OF_FRAMES NUMBER_OF_BYTES","_STATISTICS_WRITING_APP":"mkvmerge v63.0.0 ('Everything') 64-bit","_STATISTICS_WRITING_DATE_UTC":"2022-01-06 21:02:12","language":"spa","title":"Spanish (Latin American)"},"width":0,"height":0},{"index":40,"id":"","codec_name":"hdmv_pgs_subtitle","codec_long_name":"HDMV Presentation Graphic Stream subtitles","codec_type":"subtitle","codec_time_base":"","codec_tag_string":"[0][0][0][0]","codec_tag":"0x0000","r_frame_rate":"0/0","avg_frame_rate":"0/0","time_base":"1/1000","start_pts":0,"start_time":"0.000000","duration_ts":8594912,"duration":"8594.912000","bit_rate":"","bits_per_raw_sample":"","nb_frames":"","disposition":{"default":0,"dub":0,"original":0,"comment":0,"lyrics":0,"karaoke":0,"forced":0,"hearing_impaired":0,"visual_impaired":0,"clean_effects":0,"attached_pic":0},"tags":{"BPS":"17401","DURATION":"02:12:23.853000000","NUMBER_OF_BYTES":"17279089","NUMBER_OF_FRAMES":"2325","_STATISTICS_TAGS":"BPS DURATION NUMBER_OF_FRAMES NUMBER_OF_BYTES","_STATISTICS_WRITING_APP":"mkvmerge v63.0.0 ('Everything') 64-bit","_STATISTICS_WRITING_DATE_UTC":"2022-01-06 21:02:12","language":"swe","title":"Swedish"},"width":0,"height":0},{"index":41,"id":"","codec_name":"hdmv_pgs_subtitle","codec_long_name":"HDMV Presentation Graphic Stream subtitles","codec_type":"subtitle","codec_time_base":"","codec_tag_string":"[0][0][0][0]","codec_tag":"0x0000","r_frame_rate":"0/0","avg_frame_rate":"0/0","time_base":"1/1000","start_pts":0,"start_time":"0.000000","duration_ts":8594912,"duration":"8594.912000","bit_rate":"","bits_per_raw_sample":"","nb_frames":"","disposition":{"default":0,"dub":0,"original":0,"comment":0,"lyrics":0,"karaoke":0,"forced":0,"hearing_impaired":0,"visual_impaired":0,"clean_effects":0,"attached_pic":0},"tags":{"BPS":"18576","DURATION":"02:14:19.968000000","NUMBER_OF_BYTES":"18716074","NUMBER_OF_FRAMES":"3151","_STATISTICS_TAGS":"BPS DURATION NUMBER_OF_FRAMES NUMBER_OF_BYTES","_STATISTICS_WRITING_APP":"mkvmerge v63.0.0 ('Everything') 64-bit","_STATISTICS_WRITING_DATE_UTC":"2022-01-06 21:02:12","language":"tha","title":"Thai"},"width":0,"height":0},{"index":42,"id":"","codec_name":"hdmv_pgs_subtitle","codec_long_name":"HDMV Presentation Graphic Stream subtitles","codec_type":"subtitle","codec_time_base":"","codec_tag_string":"[0][0][0][0]","codec_tag":"0x0000","r_frame_rate":"0/0","avg_frame_rate":"0/0","time_base":"1/1000","start_pts":0,"start_time":"0.000000","duration_ts":8594912,"duration":"8594.912000","bit_rate":"","bits_per_raw_sample":"","nb_frames":"","disposition":{"default":0,"dub":0,"original":0,"comment":0,"lyrics":0,"karaoke":0,"forced":0,"hearing_impaired":0,"visual_impaired":0,"clean_effects":0,"attached_pic":0},"tags":{"BPS":"22959","DURATION":"02:13:01.808000000","NUMBER_OF_BYTES":"22907744","NUMBER_OF_FRAMES":"2460","_STATISTICS_TAGS":"BPS DURATION NUMBER_OF_FRAMES NUMBER_OF_BYTES","_STATISTICS_WRITING_APP":"mkvmerge v63.0.0 ('Everything') 64-bit","_STATISTICS_WRITING_DATE_UTC":"2022-01-06 21:02:12","language":"tur","title":"Turkish"},"width":0,"height":0},{"index":43,"id":"","codec_name":"hdmv_pgs_subtitle","codec_long_name":"HDMV Presentation Graphic Stream subtitles","codec_type":"subtitle","codec_time_base":"","codec_tag_string":"[0][0][0][0]","codec_tag":"0x0000","r_frame_rate":"0/0","avg_frame_rate":"0/0","time_base":"1/1000","start_pts":0,"start_time":"0.000000","duration_ts":8594912,"duration":"8594.912000","bit_rate":"","bits_per_raw_sample":"","nb_frames":"","disposition":{"default":0,"dub":0,"original":0,"comment":0,"lyrics":0,"karaoke":0,"forced":0,"hearing_impaired":0,"visual_impaired":0,"clean_effects":0,"attached_pic":0},"tags":{"BPS":"26259","DURATION":"02:14:19.968000000","NUMBER_OF_BYTES":"26455882","NUMBER_OF_FRAMES":"3246","_STATISTICS_TAGS":"BPS DURATION NUMBER_OF_FRAMES NUMBER_OF_BYTES","_STATISTICS_WRITING_APP":"mkvmerge v63.0.0 ('Everything') 64-bit","_STATISTICS_WRITING_DATE_UTC":"2022-01-06 21:02:12","language":"ukr","title":"Ukrainian"},"width":0,"height":0},{"index":44,"id":"","codec_name":"hdmv_pgs_subtitle","codec_long_name":"HDMV Presentation Graphic Stream subtitles","codec_type":"subtitle","codec_time_base":"","codec_tag_string":"[0][0][0][0]","codec_tag":"0x0000","r_frame_rate":"0/0","avg_frame_rate":"0/0","time_base":"1/1000","start_pts":0,"start_time":"0.000000","duration_ts":8594912,"duration":"8594.912000","bit_rate":"","bits_per_raw_sample":"","nb_frames":"","disposition":{"default":0,"dub":0,"original":0,"comment":0,"lyrics":0,"karaoke":0,"forced":0,"hearing_impaired":0,"visual_impaired":0,"clean_effects":0,"attached_pic":0},"tags":{"BPS":"38694","DURATION":"02:22:37.549000000","NUMBER_OF_BYTES":"41391580","NUMBER_OF_FRAMES":"3847","_STATISTICS_TAGS":"BPS DURATION NUMBER_OF_FRAMES NUMBER_OF_BYTES","_STATISTICS_WRITING_APP":"mkvmerge v63.0.0 ('Everything') 64-bit","_STATISTICS_WRITING_DATE_UTC":"2022-01-06 21:02:12","language":"eng","title":"English (Commentary #1)"},"width":0,"height":0},{"index":45,"id":"","codec_name":"hdmv_pgs_subtitle","codec_long_name":"HDMV Presentation Graphic Stream subtitles","codec_type":"subtitle","codec_time_base":"","codec_tag_string":"[0][0][0][0]","codec_tag":"0x0000","r_frame_rate":"0/0","avg_frame_rate":"0/0","time_base":"1/1000","start_pts":0,"start_time":"0.000000","duration_ts":8594912,"duration":"8594.912000","bit_rate":"","bits_per_raw_sample":"","nb_frames":"","disposition":{"default":0,"dub":0,"original":0,"comment":0,"lyrics":0,"karaoke":0,"forced":0,"hearing_impaired":0,"visual_impaired":0,"clean_effects":0,"attached_pic":0},"tags":{"BPS":"42795","DURATION":"02:13:15.947000000","NUMBER_OF_BYTES":"42774212","NUMBER_OF_FRAMES":"4192","_STATISTICS_TAGS":"BPS DURATION NUMBER_OF_FRAMES NUMBER_OF_BYTES","_STATISTICS_WRITING_APP":"mkvmerge v63.0.0 ('Everything') 64-bit","_STATISTICS_WRITING_DATE_UTC":"2022-01-06 21:02:12","language":"eng","title":"English (Commentary #2)"},"width":0,"height":0},{"index":46,"id":"","codec_name":"hdmv_pgs_subtitle","codec_long_name":"HDMV Presentation Graphic Stream subtitles","codec_type":"subtitle","codec_time_base":"","codec_tag_string":"[0][0][0][0]","codec_tag":"0x0000","r_frame_rate":"0/0","avg_frame_rate":"0/0","time_base":"1/1000","start_pts":0,"start_time":"0.000000","duration_ts":8594912,"duration":"8594.912000","bit_rate":"","bits_per_raw_sample":"","nb_frames":"","disposition":{"default":0,"dub":0,"original":0,"comment":0,"lyrics":0,"karaoke":0,"forced":0,"hearing_impaired":0,"visual_impaired":0,"clean_effects":0,"attached_pic":0},"tags":{"BPS":"44296","DURATION":"02:21:10.879000000","NUMBER_OF_BYTES":"46903512","NUMBER_OF_FRAMES":"4247","_STATISTICS_TAGS":"BPS DURATION NUMBER_OF_FRAMES NUMBER_OF_BYTES","_STATISTICS_WRITING_APP":"mkvmerge v63.0.0 ('Everything') 64-bit","_STATISTICS_WRITING_DATE_UTC":"2022-01-06 21:02:12","language":"eng","title":"English (Commentary #3)"},"width":0,"height":0},{"index":47,"id":"","codec_name":"hdmv_pgs_subtitle","codec_long_name":"HDMV Presentation Graphic Stream subtitles","codec_type":"subtitle","codec_time_base":"","codec_tag_string":"[0][0][0][0]","codec_tag":"0x0000","r_frame_rate":"0/0","avg_frame_rate":"0/0","time_base":"1/1000","start_pts":0,"start_time":"0.000000","duration_ts":8594912,"duration":"8594.912000","bit_rate":"","bits_per_raw_sample":"","nb_frames":"","disposition":{"default":0,"dub":0,"original":0,"comment":0,"lyrics":0,"karaoke":0,"forced":0,"hearing_impaired":0,"visual_impaired":0,"clean_effects":0,"attached_pic":0},"tags":{"BPS":"25770","DURATION":"02:11:23.876000000","NUMBER_OF_BYTES":"25396642","NUMBER_OF_FRAMES":"399","_STATISTICS_TAGS":"BPS DURATION NUMBER_OF_FRAMES NUMBER_OF_BYTES","_STATISTICS_WRITING_APP":"mkvmerge v63.0.0 ('Everything') 64-bit","_STATISTICS_WRITING_DATE_UTC":"2022-01-06 21:02:12","language":"eng","title":"English (Trivia)"},"width":0,"height":0},{"index":48,"id":"","codec_name":"hdmv_pgs_subtitle","codec_long_name":"HDMV Presentation Graphic Stream subtitles","codec_type":"subtitle","codec_time_base":"","codec_tag_string":"[0][0][0][0]","codec_tag":"0x0000","r_frame_rate":"0/0","avg_frame_rate":"0/0","time_base":"1/1000","start_pts":0,"start_time":"0.000000","duration_ts":8594912,"duration":"8594.912000","bit_rate":"","bits_per_raw_sample":"","nb_frames":"","disposition":{"default":0,"dub":0,"original":0,"comment":0,"lyrics":0,"karaoke":0,"forced":0,"hearing_impaired":0,"visual_impaired":0,"clean_effects":0,"attached_pic":0},"tags":{"BPS":"25810","DURATION":"02:11:23.876000000","NUMBER_OF_BYTES":"25436062","NUMBER_OF_FRAMES":"399","_STATISTICS_TAGS":"BPS DURATION NUMBER_OF_FRAMES NUMBER_OF_BYTES","_STATISTICS_WRITING_APP":"mkvmerge v63.0.0 ('Everything') 64-bit","_STATISTICS_WRITING_DATE_UTC":"2022-01-06 21:02:12","language":"fre","title":"French (Trivia)"},"width":0,"height":0},{"index":49,"id":"","codec_name":"hdmv_pgs_subtitle","codec_long_name":"HDMV Presentation Graphic Stream subtitles","codec_type":"subtitle","codec_time_base":"","codec_tag_string":"[0][0][0][0]","codec_tag":"0x0000","r_frame_rate":"0/0","avg_frame_rate":"0/0","time_base":"1/1000","start_pts":0,"start_time":"0.000000","duration_ts":8594912,"duration":"8594.912000","bit_rate":"","bits_per_raw_sample":"","nb_frames":"","disposition":{"default":0,"dub":0,"original":0,"comment":0,"lyrics":0,"karaoke":0,"forced":0,"hearing_impaired":0,"visual_impaired":0,"clean_effects":0,"attached_pic":0},"tags":{"BPS":"25760","DURATION":"02:11:23.876000000","NUMBER_OF_BYTES":"25387044","NUMBER_OF_FRAMES":"399","_STATISTICS_TAGS":"BPS DURATION NUMBER_OF_FRAMES NUMBER_OF_BYTES","_STATISTICS_WRITING_APP":"mkvmerge v63.0.0 ('Everything') 64-bit","_STATISTICS_WRITING_DATE_UTC":"2022-01-06 21:02:12","language":"ger","title":"German (Trivia)"},"width":0,"height":0},{"index":50,"id":"","codec_name":"hdmv_pgs_subtitle","codec_long_name":"HDMV Presentation Graphic Stream subtitles","codec_type":"subtitle","codec_time_base":"","codec_tag_string":"[0][0][0][0]","codec_tag":"0x0000","r_frame_rate":"0/0","avg_frame_rate":"0/0","time_base":"1/1000","start_pts":0,"start_time":"0.000000","duration_ts":8594912,"duration":"8594.912000","bit_rate":"","bits_per_raw_sample":"","nb_frames":"","disposition":{"default":0,"dub":0,"original":0,"comment":0,"lyrics":0,"karaoke":0,"forced":0,"hearing_impaired":0,"visual_impaired":0,"clean_effects":0,"attached_pic":0},"tags":{"BPS":"25799","DURATION":"02:11:23.876000000","NUMBER_OF_BYTES":"25425409","NUMBER_OF_FRAMES":"399","_STATISTICS_TAGS":"BPS DURATION NUMBER_OF_FRAMES NUMBER_OF_BYTES","_STATISTICS_WRITING_APP":"mkvmerge v63.0.0 ('Everything') 64-bit","_STATISTICS_WRITING_DATE_UTC":"2022-01-06 21:02:12","language":"ita","title":"Italian (Trivia)"},"width":0,"height":0},{"index":51,"id":"","codec_name":"hdmv_pgs_subtitle","codec_long_name":"HDMV Presentation Graphic Stream subtitles","codec_type":"subtitle","codec_time_base":"","codec_tag_string":"[0][0][0][0]","codec_tag":"0x0000","r_frame_rate":"0/0","avg_frame_rate":"0/0","time_base":"1/1000","start_pts":0,"start_time":"0.000000","duration_ts":8594912,"duration":"8594.912000","bit_rate":"","bits_per_raw_sample":"","nb_frames":"","disposition":{"default":0,"dub":0,"original":0,"comment":0,"lyrics":0,"karaoke":0,"forced":0,"hearing_impaired":0,"visual_impaired":0,"clean_effects":0,"attached_pic":0},"tags":{"BPS":"25820","DURATION":"02:11:23.876000000","NUMBER_OF_BYTES":"25446059","NUMBER_OF_FRAMES":"399","_STATISTICS_TAGS":"BPS DURATION NUMBER_OF_FRAMES NUMBER_OF_BYTES","_STATISTICS_WRITING_APP":"mkvmerge v63.0.0 ('Everything') 64-bit","_STATISTICS_WRITING_DATE_UTC":"2022-01-06 21:02:12","language":"jpn","title":"Japanese (Trivia)"},"width":0,"height":0},{"index":52,"id":"","codec_name":"hdmv_pgs_subtitle","codec_long_name":"HDMV Presentation Graphic Stream subtitles","codec_type":"subtitle","codec_time_base":"","codec_tag_string":"[0][0][0][0]","codec_tag":"0x0000","r_frame_rate":"0/0","avg_frame_rate":"0/0","time_base":"1/1000","start_pts":0,"start_time":"0.000000","duration_ts":8594912,"duration":"8594.912000","bit_rate":"","bits_per_raw_sample":"","nb_frames":"","disposition":{"default":0,"dub":0,"original":0,"comment":0,"lyrics":0,"karaoke":0,"forced":0,"hearing_impaired":0,"visual_impaired":0,"clean_effects":0,"attached_pic":0},"tags":{"BPS":"25811","DURATION":"02:11:23.876000000","NUMBER_OF_BYTES":"25436992","NUMBER_OF_FRAMES":"399","_STATISTICS_TAGS":"BPS DURATION NUMBER_OF_FRAMES NUMBER_OF_BYTES","_STATISTICS_WRITING_APP":"mkvmerge v63.0.0 ('Everything') 64-bit","_STATISTICS_WRITING_DATE_UTC":"2022-01-06 21:02:12","language":"spa","title":"Spanish (Latin American) (Trivia)"},"width":0,"height":0}],"format":{"filename":"https://20.download.real-debrid.com/d/EFFYGJKPY6WWG/Pirates.of.the.Caribbean.The.Curse.of.the.Black.Pearl.2003.BluRay.1080p.TrueHD.Atmos.7.1.AVC.HYBRID.REMUX-FraMeSToR.mkv","nb_streams":53,"nb_programs":0,"format_name":"matroska,webm","format_long_name":"Matroska / WebM","start_time":"0","duration":"8594.912","size":"28428464880","bit_rate":"26460738","probe_score":100,"tags":{"IMDB":"tt0325980","TMDB":"movie/22","creation_time":"2022-01-06T21:02:12.000000Z","encoder":"libebml v1.4.2 + libmatroska v1.6.4","title":"Pirates of the Caribbean: The Curse of the Black Pearl (2003)"}},"chapters":[{"id":7481355035653477735,"time_base":"1/1000000000","start_time":"0","end_time":"531.239","tags":{"title":"Opening Credits/A Pirate's Life"}},{"id":-601242005410851795,"time_base":"1/1000000000","start_time":"531.239","end_time":"965.548","tags":{"title":"Pirates Ye Be Warned"}},{"id":573695628755280007,"time_base":"1/1000000000","start_time":"965.548","end_time":"1636.343","tags":{"title":"Elizabeth's Rescue"}},{"id":87397562746765316,"time_base":"1/1000000000","start_time":"1636.343","end_time":"2159.324","tags":{"title":"The Black Pearl"}},{"id":-7268220227105142275,"time_base":"1/1000000000","start_time":"2159.324","end_time":"2462.96","tags":{"title":"Welcome Aboard"}},{"id":4237486754001031530,"time_base":"1/1000000000","start_time":"2462.96","end_time":"2899.939","tags":{"title":"The Hunt"}},{"id":-3405835822660212586,"time_base":"1/1000000000","start_time":"2899.939","end_time":"3241.28","tags":{"title":"Finding A Crew"}},{"id":372479281492821941,"time_base":"1/1000000000","start_time":"3241.28","end_time":"3845.675","tags":{"title":"Aztec Gold"}},{"id":-7088979938759897442,"time_base":"1/1000000000","start_time":"3845.675","end_time":"4556.802","tags":{"title":"The Treasure Of Cortez"}},{"id":-439515456547879104,"time_base":"1/1000000000","start_time":"4556.802","end_time":"4881.418","tags":{"title":"Keep To The Code"}},{"id":-757457728595475840,"time_base":"1/1000000000","start_time":"4881.418","end_time":"5700.236","tags":{"title":"The Battle"}},{"id":-1077797484239074888,"time_base":"1/1000000000","start_time":"5700.236","end_time":"6000.828","tags":{"title":"Stranded Again"}},{"id":3575934521641658893,"time_base":"1/1000000000","start_time":"6000.828","end_time":"6495.614","tags":{"title":"The Curse"}},{"id":-6866986501558581095,"time_base":"1/1000000000","start_time":"6495.614","end_time":"7322.19","tags":{"title":"The Trojan Horse"}},{"id":-7927906351333816413,"time_base":"1/1000000000","start_time":"7322.19","end_time":"7989.648","tags":{"title":"The Curse Is Lifted"}},{"id":-6283450030321972335,"time_base":"1/1000000000","start_time":"7989.648","end_time":"8594.912","tags":{"title":"End Credits"}}]}}},"UnassignedLinks":"","IDsToDelete":"","State":"ok_torrent","StateWhen":1731862130,"Name":"Pirates.of.the.Caribbean.The.Curse.of.the.Black.Pearl.2003.BluRay.1080p.TrueHD.Atmos.7.1.AVC.HYBRID.REMUX-FraMeSToR.mkv","OriginalName":"Pirates.of.the.Caribbean.The.Curse.of.the.Black.Pearl.2003.BluRay.1080p.TrueHD.Atmos.7.1.AVC.HYBRID.REMUX-FraMeSToR.mkv","Hash":"5780931bb69a3bcd800b2f5fc60ef76c122a4cc8","Added":"2024-07-26T06:53:10.000+01:00","Rename":"","Unfixable":"","IMDBID":"","Version":"0.10.0"}